<?xml version="1.0" encoding="iso-8859-1"?>
<!-- Generator: Adobe Illustrator 17.1.0, SVG Export Plug-In . SVG Version: 6.00 Build 0)  -->
<!DOCTYPE svg PUBLIC "-//W3C//DTD SVG 1.1//EN" "http://www.w3.org/Graphics/SVG/1.1/DTD/svg11.dtd">
<svg version="1.1" id="Capa_1" xmlns="http://www.w3.org/2000/svg" xmlns:xlink="http://www.w3.org/1999/xlink" x="0px" y="0px"
	 viewBox="0 0 419.523 419.523" style="enable-background:new 0 0 419.523 419.523;" xml:space="preserve">
<g>
	<path d="M348.081,50.645c-3.768-4.636-9.189-7.19-15.268-7.19c-11.39,0-22.802,9.043-26.655,21.078l-11.021,25.643l-0.182,0.493
		c-1.144,3.691-6.061,7.314-9.926,7.314h-27.178c-1.128,0-2.237,0.082-3.325,0.228c-0.934-0.135-1.881-0.228-2.851-0.228h-10.73
		c13.775-9.789,22.788-25.862,22.788-44.01C263.733,24.212,239.522,0,209.763,0s-53.972,24.212-53.972,53.972
		c0,18.148,9.013,34.221,22.788,44.01h-10.731c-0.97,0-1.917,0.093-2.851,0.228c-1.089-0.146-2.197-0.228-3.325-0.228h-27.179
		c-3.865,0-8.782-3.623-9.926-7.314l-11.201-26.135c-3.854-12.035-15.266-21.079-26.656-21.079c-6.078,0-11.5,2.554-15.267,7.189
		c-4.182,5.146-5.711,12.251-4.196,19.494l13.879,56.384c2.689,12.632,14.882,22.514,27.802,22.514h38.998v64.735h123.673v-64.735
		h38.997c12.92,0,25.112-9.882,27.802-22.514l13.84-56.212l0.039-0.171C353.791,62.894,352.262,55.789,348.081,50.645z"/>
	<path d="M171.838,254.553c-5.286-3.946-10.745-6.353-15.884-8.48c-1.41-0.583-2.804-0.879-4.143-0.879
		c-3.075,0-5.287,1.532-6.408,3.051l-32.199,40.673c-7.342,9.102-8.413,20.25-9.195,28.391l-0.069,0.726l2.484,78.017
		c-0.502,6.136,1.443,11.956,5.499,16.421c4.13,4.546,9.867,7.051,16.155,7.051h15.702c11.874,0,22.935-9.134,25.182-20.793
		l0.06-0.307l5.092-78.252c0.742-2.453,6.483-7.99,9.61-11.005c3.558-3.431,6.63-6.395,8.264-9.013
		c4.245-6.519,3.504-9.274,3.225-10.313C192.968,281.503,186.948,265.833,171.838,254.553z"/>
	<path d="M306.012,288.953l-32.228-40.708c-1.121-1.519-3.333-3.051-6.409-3.051c-1.339,0-2.732,0.296-4.143,0.879
		c-5.139,2.128-10.599,4.535-15.883,8.48c-15.112,11.281-21.131,26.951-23.374,35.285c-0.279,1.038-1.022,3.794,3.173,10.235
		c1.685,2.698,4.757,5.661,8.314,9.092c3.127,3.015,8.868,8.552,9.61,11.005l5.071,77.94l0.08,0.619
		c2.247,11.66,13.309,20.793,25.183,20.793h15.702c6.288,0,12.025-2.504,16.156-7.052c4.055-4.466,6-10.286,5.498-16.42
		l2.475-77.698l0.01-0.319l-0.07-0.735C314.395,309.161,313.323,298.016,306.012,288.953z"/>
</g>
<g>
</g>
<g>
</g>
<g>
</g>
<g>
</g>
<g>
</g>
<g>
</g>
<g>
</g>
<g>
</g>
<g>
</g>
<g>
</g>
<g>
</g>
<g>
</g>
<g>
</g>
<g>
</g>
<g>
</g>
</svg>
